<svg width="180" height="180" viewBox="0 0 180 180" fill="none" xmlns="http://www.w3.org/2000/svg">
<rect width="180" height="180" rx="90" fill="#0056D2"/>
<path fill-rule="evenodd" clip-rule="evenodd" d="M85.3999 152V130.81C80.8096 129.958 76.9499 127.766 73.8207 124.234C69.8023 119.476 67.7931 112.752 67.7931 104.063V42H44V104.063C44 114.097 45.8506 122.734 49.5517 129.975C53.3586 137.112 58.6988 142.595 65.5724 146.422C71.377 149.605 77.9861 151.464 85.3999 152ZM94.5999 152V130.808C99.1668 129.955 102.974 127.764 106.021 124.234C110.145 119.476 112.207 112.752 112.207 104.063V42H136V104.063C136 114.097 134.097 122.734 130.29 129.975C126.588 137.112 121.248 142.595 114.269 146.422C108.553 149.604 101.997 151.464 94.5999 152Z" fill="white"/>
</svg>
