<svg width="1280" height="720" viewBox="0 0 1280 720" fill="none" xmlns="http://www.w3.org/2000/svg">
<rect width="1280" height="720" fill="#0056D2"/>
<path d="M510.398 314.727H534.091V370.636C534.091 377.284 532.5 383.037 529.318 387.895C526.165 392.724 521.761 396.46 516.108 399.102C510.455 401.716 503.892 403.023 496.42 403.023C488.892 403.023 482.301 401.716 476.648 399.102C470.994 396.46 466.591 392.724 463.438 387.895C460.312 383.037 458.75 377.284 458.75 370.636V314.727H482.443V368.591C482.443 371.29 483.04 373.705 484.233 375.835C485.426 377.937 487.074 379.585 489.176 380.778C491.307 381.972 493.722 382.568 496.42 382.568C499.148 382.568 501.563 381.972 503.665 380.778C505.767 379.585 507.415 377.937 508.608 375.835C509.801 373.705 510.398 371.29 510.398 368.591V314.727ZM569.465 365.182V402H545.942V336.545H568.272V348.989H568.954C570.374 344.841 572.874 341.588 576.454 339.23C580.062 336.872 584.266 335.693 589.067 335.693C593.698 335.693 597.718 336.759 601.127 338.889C604.565 340.991 607.221 343.889 609.096 347.582C610.999 351.276 611.937 355.494 611.908 360.239V402H588.386V365.182C588.414 361.943 587.59 359.401 585.914 357.554C584.266 355.707 581.965 354.784 579.011 354.784C577.079 354.784 575.388 355.21 573.94 356.062C572.519 356.886 571.425 358.08 570.658 359.642C569.891 361.176 569.494 363.023 569.465 365.182ZM623.771 402V336.545H647.293V402H623.771ZM635.532 329.727C632.35 329.727 629.623 328.676 627.35 326.574C625.077 324.472 623.941 321.943 623.941 318.989C623.941 316.034 625.077 313.506 627.35 311.403C629.623 309.301 632.35 308.25 635.532 308.25C638.742 308.25 641.469 309.301 643.714 311.403C645.987 313.506 647.123 316.034 647.123 318.989C647.123 321.943 645.987 324.472 643.714 326.574C641.469 328.676 638.742 329.727 635.532 329.727ZM692.767 402H659.188V314.727H692.426C701.403 314.727 709.159 316.474 715.693 319.969C722.256 323.435 727.313 328.435 730.864 334.969C734.443 341.474 736.233 349.273 736.233 358.364C736.233 367.455 734.457 375.267 730.906 381.801C727.355 388.307 722.327 393.307 715.821 396.801C709.315 400.267 701.631 402 692.767 402ZM682.881 381.886H691.915C696.233 381.886 699.912 381.19 702.952 379.798C706.02 378.406 708.349 376.006 709.94 372.597C711.56 369.187 712.369 364.443 712.369 358.364C712.369 352.284 711.545 347.54 709.898 344.131C708.278 340.722 705.892 338.321 702.739 336.929C699.614 335.537 695.778 334.841 691.233 334.841H682.881V381.886ZM779.15 403.193C772.161 403.193 766.138 401.858 761.082 399.188C756.053 396.489 752.175 392.625 749.448 387.597C746.749 382.54 745.4 376.489 745.4 369.443C745.4 362.682 746.763 356.773 749.491 351.716C752.218 346.659 756.067 342.724 761.039 339.912C766.011 337.099 771.877 335.693 778.638 335.693C783.582 335.693 788.056 336.46 792.062 337.994C796.067 339.528 799.491 341.759 802.332 344.685C805.173 347.582 807.36 351.105 808.894 355.253C810.428 359.401 811.195 364.074 811.195 369.273V374.727H752.729V361.773H789.548C789.519 359.898 789.036 358.25 788.099 356.83C787.19 355.381 785.954 354.259 784.391 353.463C782.857 352.639 781.11 352.227 779.15 352.227C777.246 352.227 775.499 352.639 773.908 353.463C772.317 354.259 771.039 355.366 770.073 356.787C769.136 358.207 768.638 359.869 768.582 361.773V375.75C768.582 377.852 769.022 379.727 769.903 381.375C770.783 383.023 772.048 384.315 773.695 385.253C775.343 386.19 777.332 386.659 779.661 386.659C781.281 386.659 782.758 386.432 784.093 385.977C785.457 385.523 786.621 384.869 787.587 384.017C788.553 383.136 789.263 382.085 789.718 380.864H811.195C810.457 385.409 808.71 389.358 805.954 392.71C803.198 396.034 799.548 398.619 795.002 400.466C790.485 402.284 785.201 403.193 779.15 403.193ZM852.578 403.193C845.476 403.193 839.396 401.787 834.339 398.974C829.283 396.134 825.405 392.185 822.706 387.128C820.007 382.043 818.658 376.148 818.658 369.443C818.658 362.739 820.007 356.858 822.706 351.801C825.405 346.716 829.283 342.767 834.339 339.955C839.396 337.114 845.476 335.693 852.578 335.693C858.999 335.693 864.553 336.858 869.24 339.188C873.956 341.489 877.607 344.756 880.192 348.989C882.777 353.193 884.084 358.136 884.112 363.818H862.294C861.982 360.381 860.987 357.767 859.311 355.977C857.663 354.159 855.533 353.25 852.919 353.25C850.874 353.25 849.084 353.847 847.55 355.04C846.016 356.205 844.822 357.98 843.97 360.366C843.118 362.724 842.692 365.693 842.692 369.273C842.692 372.852 843.118 375.835 843.97 378.222C844.822 380.58 846.016 382.355 847.55 383.548C849.084 384.713 850.874 385.295 852.919 385.295C854.652 385.295 856.186 384.898 857.521 384.102C858.857 383.278 859.936 382.085 860.76 380.523C861.612 378.932 862.124 377 862.294 374.727H884.112C884.027 380.494 882.706 385.523 880.149 389.812C877.592 394.074 873.97 397.369 869.283 399.699C864.624 402.028 859.055 403.193 852.578 403.193ZM915.204 386.489L915.374 358.534H918.442L934.295 336.545H960.715L934.124 370.807H927.477L915.204 386.489ZM894.067 402V314.727H917.59V402H894.067ZM934.465 402L919.465 376.091L934.806 359.386L961.397 402H934.465Z" fill="#E5EEFA"/>
<path d="M408.88 338H307.12C302.083 338 298 342.051 298 347.048V368.952C298 373.949 302.083 378 307.12 378H408.88C413.917 378 418 373.949 418 368.952V347.048C418 342.051 413.917 338 408.88 338Z" fill="#E5EEFA"/>
<path d="M411.141 298C414.929 298 418 301.791 418 306.468V324.532C418 329.209 414.929 333 411.141 333H349.859C346.071 333 343 329.209 343 324.532V306.468C343 301.791 346.071 298 349.859 298H411.141ZM353.945 303C350.662 303 348 305.708 348 309.049V321.951C348 325.292 350.662 328 353.945 328H407.055C410.338 328 413 325.292 413 321.951V309.049C413 305.708 410.338 303 407.055 303H353.945Z" fill="#E5EEFA"/>
<path d="M366.141 383C369.929 383 373 386.791 373 391.468V409.532C373 414.209 369.929 418 366.141 418H304.859C301.071 418 298 414.209 298 409.532V391.468C298 386.791 301.071 383 304.859 383H366.141ZM308.945 388C305.662 388 303 390.708 303 394.049V406.952C303 410.292 305.662 413 308.945 413H362.055C365.338 413 368 410.292 368 406.952V394.049C368 390.708 365.338 388 362.055 388H308.945Z" fill="#E5EEFA"/>
<path d="M410.105 383H385.895C381.535 383 378 386.791 378 391.468V409.532C378 414.209 381.535 418 385.895 418H410.105C414.465 418 418 414.209 418 409.532V391.468C418 386.791 414.465 383 410.105 383Z" fill="#E5EEFA"/>
<path d="M330.105 298H305.895C301.535 298 298 301.791 298 306.468V324.532C298 329.209 301.535 333 305.895 333H330.105C334.465 333 338 329.209 338 324.532V306.468C338 301.791 334.465 298 330.105 298Z" fill="#E5EEFA"/>
</svg>
